<?xml version="1.0" encoding="UTF-8"?>
<svg id="Layer_1" data-name="Layer 1" xmlns="http://www.w3.org/2000/svg" version="1.1" viewBox="0 0 1164 252">
  <defs>
    <style>
      .cls-1 {
        fill: #fff;
        stroke-width: 0px;
      }
    </style>
  </defs>
  <path class="cls-1" d="M1126.7,7.5c-88.9,18.4-95.2,20-104.9,24.5-11.2,5.2-19.9,13.2-24.5,22.7-2.7,5.6-3.2,8.5-3.2,19.3s.4,13.6,3.7,20.3c8,16.3,26.9,28.4,46.8,30,9.3.8,9.5.8,7.2-1.9-3.2-3.5-3.1-6.9.4-10.5,2.1-2.4,7.9-4.3,23.7-8,11.5-2.7,21.3-5.3,22-5.9,1.1-1.1,7.9-28.1,7.2-28.7-.7-.5-51.7,11.1-58.3,13.3-9.3,3.1-13.7,8.3-14.4,16.9-.5,5.7,0,8.3,2.8,13.3,1.9,3.6,2.9,6.4,2.3,6.4-2.5,0-12.4-7.9-15.9-12.7-10.4-14.4-9.1-30.9,3.5-42.3,3.1-2.8,7.7-5.9,10.4-7.1,2.7-1.1,30.7-7.1,62.3-13.3,31.6-6.3,57.9-11.9,58.4-12.4.5-.5,2.3-6.7,3.7-13.6,1.6-6.9,3.2-13.7,3.6-15.1.9-3.2-.8-3.1-36.8,4.5Z"/>
  <path class="cls-1" d="M250,58c-30,3.2-55.5,16.1-67.1,34.3-12.8,20-12.9,47.5-.3,67.1,16.1,25.1,54.3,38.9,96.1,34.8,37.5-3.6,62.5-17.5,74.1-41.2,4.7-9.2,5.1-11.1,5.5-23.6.8-22-4.3-34.9-19.3-48.7-18.9-17.3-54.4-26.3-89.1-22.7ZM288.1,86.5c10.1,2.1,23.1,8.3,29.5,14,8.9,7.9,13.7,23.7,10.4,34.3-4.3,13.5-15.2,22.5-34.8,29.1-22.1,7.3-43.3,5.9-65.2-4.5-13.3-6.5-20.1-13.1-23.3-22.8-7.2-21.6,8.8-42.8,37.5-49.7,10.3-2.5,34.8-2.5,46-.3Z"/>
  <path class="cls-1" d="M28.7,59.2c-10.9,2.7-21.5,11.5-25.7,21.3-1.2,2.8-2.1,8.8-2.1,14.1-.1,12,3.9,21.3,12.1,28.7,9.9,8.7,15.5,10,60.9,14.5,22.5,2.3,42.3,4.8,43.7,5.6,2.8,1.5,6.4,8.8,6.4,13.2s-1.7,4.5-3.9,6.9l-3.9,4.4-51.1.7-51.1.7-7.1,11.3c-3.9,6.3-7.1,11.7-7.1,12.1,0,1.6,72.4,2.7,100.8,1.6,27.9-1.2,28.1-1.2,35.3-5.2,13.5-7.6,21.1-22.4,19.3-37.7-1.1-10.4-8-23.6-15.1-28.9-6.9-5.2-11.9-6.4-44.5-9.9-62.4-6.8-57.5-6-60.8-9.9-4-4.8-4-10.7.3-14.8l3.2-3.3h47.3c26,0,48.3-.4,49.3-.8,1.9-.7,16.8-23.2,16.8-25.2s-118.8-.5-123.3.5Z"/>
  <path class="cls-1" d="M386.7,113.5c0,38.3.5,57.2,1.6,60.7,2.3,7.7,9.3,15.2,16.7,17.7,5.2,1.9,13.9,2.1,55.9,2.1h49.6l7.5-12.1c4.1-6.7,7.5-12.4,7.5-12.7s-23.2-.5-51.5-.5-52.3-.5-54-1.3c-2.4-1.3-2.5-3.5-2.5-55.3v-54h-30.7v55.5Z"/>
  <path class="cls-1" d="M607.5,62.9c-5.3,8.5-76.8,129.6-76.8,130.4s7.1.7,15.7.7c18.5,0,17.6.7,27.7-17.3,10.7-19.1,6.3-17.3,45.3-17.3h33.7l-7.6-13.1-7.7-12.9-19.1-.4c-10.4-.1-18.8-.8-18.5-1.3,1.3-3.3,28.4-48.3,29.1-48.3s14.5,23.5,31.3,52.1c16.8,28.8,31.7,53.6,33.1,55.3,2.4,3.1,3.2,3.2,18.4,3.2s15.9-.5,15.9-1.1c0-3.5-76-130.4-79.6-133.3-1.6-1.1-7.9-1.6-20-1.6h-17.7l-3.2,4.9Z"/>
  <path class="cls-1" d="M745.3,126v68.1l15.1-.4,14.9-.4.4-21.7.3-21.6h55.9l20.3,22,20.1,22h38.9l-5.3-5.7c-13.3-14-36.5-39.9-36.5-40.7s2.8-2.1,6.4-3.5c3.6-1.6,9.5-5.9,13.9-10.1,6.4-6.4,8-9.1,10.5-17.2,5.2-17.2,2.1-30.7-9.9-43.7-6.4-6.9-14.5-11.5-24.7-13.6-4.5-.9-26.8-1.5-63.6-1.5h-56.7v68ZM858.8,86.7c14.1,5.1,18.1,17.1,8.8,27.1-6.7,7.2-8,7.3-51.2,8l-40.4.5v-37.6h38.5c31.2,0,39.6.4,44.3,2Z"/>
  <path class="cls-1" d="M1056.7,128.7c2.9,5.7,2.5,10.3-1.2,12.7-2.5,1.7-15.2,4.8-38,9.5-4.8,1.1-10.8,7.7-10.8,12.1s-.9,7.3-2,11.6c-1.2,4.4-1.9,8-1.6,8.3.3.3,2.5-.1,5.1-.7,2.5-.7,15.6-3.7,29.2-6.8,26.5-6,32.9-8.8,36.8-16.3,3.1-5.9,1.9-15.6-2.7-22.4-1.9-2.9-2.9-5.3-2.3-5.3,2.8,0,14.4,9.1,17.7,14,8.1,11.7,8,30.4-.5,40-7.5,8.5-14,10.5-72.4,22-30,6-56.5,11.3-58.8,12.1-4,1.2-4.3,1.9-7.6,15.6-1.9,8-2.9,14.8-2.3,15.5,1.3,1.3,2.7,1.2,65.3-12,67.2-14.1,80.3-18.3,91.5-29.5,8.1-8.1,11.9-17.7,11.9-31.1s-.5-12.4-4.3-20.3c-8.3-17.5-26.3-29.1-50-32.3l-5.1-.7,2,3.9Z"/>
</svg>