<svg width="1164" height="252" viewBox="0 0 1164 252" fill="none" xmlns="http://www.w3.org/2000/svg">
<path d="M1126.67 7.46736C1037.73 25.8674 1031.47 27.4674 1021.73 32.0007C1010.53 37.2007 1001.87 45.2007 997.2 54.6674C994.533 60.2674 994 63.2007 994 74.0007C994 85.2007 994.4 87.6007 997.733 94.2674C1005.73 110.534 1024.67 122.667 1044.53 124.267C1053.87 125.067 1054 125.067 1051.73 122.401C1048.53 118.934 1048.67 115.467 1052.13 111.867C1054.27 109.467 1060 107.601 1075.87 103.867C1087.33 101.201 1097.2 98.534 1097.87 98.0007C1098.93 96.934 1105.73 69.8674 1105.07 69.334C1104.4 68.8007 1053.33 80.4007 1046.8 82.6674C1037.47 85.734 1033.07 90.934 1032.4 99.6007C1031.87 105.334 1032.4 107.867 1035.2 112.934C1037.07 116.534 1038.13 119.334 1037.47 119.334C1034.93 119.334 1025.07 111.467 1021.6 106.667C1011.2 92.2674 1012.53 75.734 1025.07 64.4007C1028.13 61.6007 1032.8 58.534 1035.47 57.334C1038.13 56.2674 1066.13 50.2674 1097.73 44.0007C1129.33 37.734 1155.6 32.134 1156.13 31.6007C1156.67 31.0674 1158.4 24.934 1159.87 18.0007C1161.47 11.0674 1163.07 4.26736 1163.47 2.93403C1164.4 -0.265973 1162.67 -0.13264 1126.67 7.46736Z" fill="#F50028"/>
<path d="M250 58.0006C220 61.2006 194.533 74.1339 182.933 92.2673C170.133 112.267 170 139.734 182.667 159.334C198.8 184.401 236.933 198.267 278.8 194.134C316.267 190.534 341.333 176.667 352.933 152.934C357.6 143.734 358 141.867 358.4 129.334C359.2 107.334 354.133 94.4006 339.067 80.6673C320.133 63.3339 284.667 54.4006 250 58.0006ZM288.133 86.5339C298.267 88.6673 311.2 94.8006 317.6 100.534C326.533 108.401 331.333 124.267 328 134.801C323.733 148.267 312.8 157.334 293.2 163.867C271.067 171.201 249.867 169.734 228 159.334C214.667 152.801 207.867 146.267 204.667 136.534C197.467 114.934 213.467 93.7339 242.133 86.8006C252.4 84.2673 276.933 84.2673 288.133 86.5339Z" fill="#F50028"/>
<path d="M28.6667 59.2007C17.7333 61.8674 7.2 70.6674 2.93333 80.534C1.73333 83.334 0.8 89.334 0.8 94.6674C0.666667 106.667 4.66667 116.001 12.9333 123.334C22.8 132.001 28.4 133.334 73.8667 137.867C96.4 140.134 116.133 142.667 117.6 143.467C120.4 144.934 124 152.267 124 156.667C124 158.134 122.267 161.201 120.133 163.601L116.267 168.001L65.2 168.667L14.1333 169.334L7.06667 180.667C3.2 186.934 0 192.401 0 192.801C0 194.401 72.4 195.467 100.8 194.401C128.667 193.201 128.933 193.201 136.133 189.201C149.6 181.601 157.2 166.801 155.467 151.467C154.4 141.067 147.467 127.867 140.4 122.534C133.467 117.334 128.533 116.134 95.8667 112.667C33.4667 105.867 38.4 106.667 35.0667 102.801C31.0667 98.0007 31.0667 92.134 35.3333 88.0007L38.5333 84.6674H85.8667C111.867 84.6674 134.133 84.2674 135.2 83.8674C137.067 83.2007 152 60.6674 152 58.6674C152 57.6007 33.2 58.134 28.6667 59.2007Z" fill="#F50028"/>
<path d="M386.667 113.467C386.667 151.733 387.2 170.667 388.267 174.133C390.533 181.867 397.6 189.333 404.933 191.867C410.133 193.733 418.8 194 460.8 194H510.4L517.867 181.867C522 175.2 525.333 169.467 525.333 169.2C525.333 168.933 502.133 168.667 473.867 168.667C441.067 168.667 421.6 168.133 419.867 167.333C417.467 166 417.333 163.867 417.333 112V58H402H386.667V113.467Z" fill="#F50028"/>
<path d="M607.467 62.9341C602.133 71.4674 530.667 192.534 530.667 193.334C530.667 193.734 537.733 194.001 546.4 194.001C564.933 194.001 564 194.667 574.133 176.667C584.8 157.601 580.4 159.334 619.467 159.334H653.2L645.6 146.267L637.867 133.334L618.8 132.934C608.4 132.801 600 132.134 600.267 131.601C601.6 128.267 628.667 83.3341 629.333 83.3341C629.733 83.3341 643.867 106.801 660.667 135.467C677.467 164.267 692.4 189.067 693.733 190.801C696.133 193.867 696.933 194.001 712.133 194.001C720.8 194.001 728 193.467 728 192.934C728 189.467 652 62.5341 648.4 59.6007C646.8 58.5341 640.533 58.0007 628.4 58.0007H610.667L607.467 62.9341Z" fill="#F50028"/>
<path d="M745.333 126V194.134L760.4 193.734L775.333 193.334L775.733 171.6L776 150H804H831.867L852.134 172L872.267 194H891.734H911.2L905.867 188.267C892.534 174.267 869.334 148.4 869.334 147.6C869.334 147.067 872.134 145.467 875.734 144.134C879.334 142.534 885.2 138.267 889.6 134C896 127.6 897.6 124.934 900.134 116.8C905.334 99.6005 902.267 86.1338 890.267 73.0671C883.867 66.1338 875.734 61.6005 865.6 59.4671C861.067 58.5338 838.8 58.0005 802 58.0005H745.333V126ZM858.8 86.6671C872.934 91.7338 876.934 103.734 867.6 113.734C860.934 120.934 859.6 121.067 816.4 121.734L776 122.267V103.467V84.6671H814.533C845.734 84.6671 854.134 85.0671 858.8 86.6671Z" fill="#F50028"/>
<path d="M1056.67 128.667C1059.6 134.4 1059.2 138.934 1055.47 141.334C1052.93 143.067 1040.27 146.134 1017.47 150.8C1012.67 151.867 1006.67 158.534 1006.67 162.934C1006.67 165.067 1005.73 170.267 1004.67 174.534C1003.47 178.934 1002.8 182.534 1003.07 182.8C1003.33 183.067 1005.6 182.667 1008.13 182.134C1010.67 181.467 1023.73 178.4 1037.33 175.334C1063.87 169.334 1070.27 166.534 1074.13 159.067C1077.2 153.2 1076 143.467 1071.47 136.667C1069.6 133.734 1068.53 131.334 1069.2 131.334C1072 131.334 1083.6 140.4 1086.93 145.334C1095.07 157.067 1094.93 175.734 1086.4 185.334C1078.93 193.867 1072.4 195.867 1014 207.334C984 213.334 957.467 218.667 955.2 219.467C951.2 220.667 950.933 221.334 947.6 235.067C945.733 243.067 944.667 249.867 945.333 250.534C946.667 251.867 948 251.734 1010.67 238.534C1077.87 224.4 1090.93 220.267 1102.13 209.067C1110.27 200.934 1114 191.334 1114 178C1114 168 1113.47 165.6 1109.73 157.734C1101.47 140.267 1083.47 128.667 1059.73 125.467L1054.67 124.8L1056.67 128.667Z" fill="#F50028"/>
</svg>
