<svg width="80" height="60" viewBox="0 0 80 60" fill="none" xmlns="http://www.w3.org/2000/svg">
<path d="M56.7143 56C68.3009 56 78 47.3831 78 36.375V25.8V21.1V16.4C78 9.94505 72.3187 5 65.7143 5H55.4286C48.8241 5 43.1429 9.94505 43.1429 16.4V25.8C43.1429 32.255 48.8241 37.2 55.4286 37.2H63.6512C63.2025 40.1245 60.4061 42.6 56.7143 42.6H55.4286C51.6527 42.6 48.2857 45.43 48.2857 49.3C48.2857 53.1699 51.6527 56 55.4286 56H56.7143ZM15.5714 56C27.158 56 36.8571 47.3831 36.8571 36.375V25.8V21.1V16.4C36.8571 9.94505 31.1759 5 24.5714 5H14.2857C7.68125 5 2 9.94505 2 16.4V25.8C2 32.255 7.68125 37.2 14.2857 37.2H22.5083C22.0596 40.1245 19.2633 42.6 15.5714 42.6H14.2857C10.5098 42.6 7.14286 45.43 7.14286 49.3C7.14286 53.1699 10.5098 56 14.2857 56H15.5714Z" fill="#F50028" stroke="white" stroke-width="4"/>
</svg>
