<svg width="1282" height="193" viewBox="0 0 1282 193" fill="none" xmlns="http://www.w3.org/2000/svg">
<g clip-path="url(#clip0_201_3393)">
<path d="M257.69 49.375L257.69 49.3749C273.891 24.1485 309.536 6.07514 351.641 1.60144C400.309 -3.43231 450.024 9.07254 476.512 33.225L476.513 33.2257C487.069 42.8095 494.093 52.0879 498.347 62.7839C502.602 73.4832 504.1 85.6412 503.538 101.01L503.538 101.012C503.257 109.799 502.976 114.792 501.957 119.195C500.941 123.589 499.186 127.416 495.904 133.859L495.901 133.866C479.694 166.893 444.646 186.267 392.044 191.301L392.043 191.301C333.263 197.081 279.862 177.675 257.315 142.78L257.314 142.779C239.61 115.493 239.792 77.2295 257.69 49.375ZM405.32 40.584L405.317 40.5833C397.392 38.9858 384.789 38.1921 372.378 38.2389C359.971 38.2856 347.687 39.1722 340.406 40.9613C320.162 45.8386 304.349 55.7433 294.866 68.274C285.376 80.8143 282.241 95.9728 287.36 111.27C291.919 125.083 301.617 134.319 320.43 143.5L320.435 143.503C351.299 158.125 381.247 160.192 412.501 149.876L412.501 149.876C440.142 140.7 455.692 127.916 461.761 108.838L461.761 108.837C464.145 101.335 463.611 91.9814 460.919 83.1386C458.227 74.2939 453.356 65.8953 446.99 60.3105C437.911 52.21 419.639 43.5865 405.32 40.584Z" stroke="white"/>
<path d="M1.62506 52.4723H1.62509V52.4667C1.62509 48.7582 1.95105 44.8146 2.48659 41.3125C3.02344 37.8019 3.76571 34.7698 4.58432 32.867C10.52 19.1963 25.2025 6.97208 40.4316 3.27155C40.7792 3.19059 41.7536 3.10135 43.3418 3.01337C44.9098 2.92651 47.0268 2.84275 49.6145 2.76255C54.7893 2.60215 61.8357 2.45628 70.1146 2.32789C86.672 2.07111 108.152 1.88436 129.434 1.79098C150.716 1.69761 171.797 1.69762 187.557 1.81435C195.438 1.87271 201.985 1.96024 206.561 2.07977C208.851 2.13957 210.641 2.20724 211.857 2.28291C212.439 2.31914 212.88 2.35666 213.179 2.39473C213.15 2.48032 213.113 2.58163 213.065 2.69996C212.919 3.0652 212.7 3.5332 212.413 4.09335C211.841 5.21229 211.017 6.6681 210.014 8.34811C208.01 11.7064 205.308 15.9364 202.521 20.1109C199.735 24.2856 196.869 28.3986 194.538 31.5235C193.372 33.0869 192.344 34.3967 191.53 35.3417C191.122 35.8148 190.774 36.1892 190.493 36.4561C190.353 36.5896 190.235 36.6906 190.139 36.7621C190.038 36.8376 189.985 36.8625 189.972 36.867L189.965 36.8697L189.965 36.8698C189.96 36.871 189.923 36.8819 189.83 36.8975C189.739 36.9128 189.616 36.9291 189.461 36.946C189.151 36.9797 188.728 37.0139 188.195 37.0482C187.131 37.1167 185.648 37.1843 183.79 37.2499C180.077 37.3811 174.883 37.5036 168.591 37.6087C156.007 37.8187 139.04 37.9588 120.759 37.9588H54.1916H53.9791L53.8316 38.1118L49.3375 42.7745C46.2522 45.7546 44.6928 49.3788 44.6442 53.1373C44.5955 56.8937 46.0559 60.7422 48.9328 64.181L48.9328 64.1811L48.9383 64.1874C49.2228 64.5161 49.4641 64.8211 49.6912 65.1113C49.7189 65.1467 49.7464 65.182 49.7739 65.2172C49.9694 65.4675 50.16 65.7115 50.356 65.942C50.8121 66.4786 51.3102 66.9582 52.0616 67.3966C53.5321 68.2548 55.9347 68.93 60.839 69.7227C69.2977 71.0899 85.436 72.8365 117.676 76.3257C122.933 76.8946 128.619 77.5099 134.769 78.1775L134.77 78.1776C157.748 80.6068 170.937 82.2386 179.6 84.1689C188.227 86.0914 192.335 88.3029 197.154 91.9027C202.041 95.5768 206.92 101.996 210.769 109.337C214.615 116.674 217.403 124.877 218.145 132.082L218.145 132.087C220.559 153.365 209.973 173.904 191.208 184.452C186.166 187.243 183.603 188.609 177.434 189.507C171.24 190.408 161.452 190.828 142.039 191.661L141.742 191.673C141.742 191.673 141.741 191.673 141.74 191.673C121.783 192.419 86.3549 192.42 55.9103 191.953C40.6885 191.719 26.7179 191.369 16.5547 190.938C11.4718 190.722 7.34756 190.486 4.49701 190.235C3.06944 190.109 1.97374 189.98 1.24035 189.851C0.97094 189.803 0.76216 189.757 0.608978 189.715C0.623115 189.684 0.638535 189.651 0.65528 189.616C0.783411 189.347 0.975656 188.977 1.2276 188.512C1.73065 187.585 2.45997 186.307 3.36137 184.767C5.16327 181.69 7.64514 177.586 10.3622 173.199C10.3626 173.198 10.363 173.198 10.3633 173.197L20.1556 157.555L91.701 156.625L163.52 155.692L163.741 155.689L163.888 155.523L169.323 149.361C169.324 149.36 169.324 149.36 169.325 149.359C170.848 147.653 172.228 145.71 173.23 143.927C173.732 143.035 174.142 142.176 174.429 141.4C174.713 140.633 174.888 139.915 174.888 139.315C174.888 136.125 173.587 131.937 171.814 128.31C170.923 126.489 169.905 124.791 168.853 123.411C167.809 122.042 166.702 120.948 165.622 120.383C165.437 120.284 165.159 120.193 164.837 120.105C164.498 120.012 164.068 119.913 163.554 119.807C162.525 119.594 161.139 119.35 159.442 119.079C156.048 118.538 151.389 117.889 145.809 117.177C134.646 115.752 119.781 114.071 103.933 112.482L103.932 112.482C71.9486 109.307 54.0327 107.255 42.3765 104.487C36.5581 103.105 32.3179 101.548 28.6772 99.5919C25.0363 97.6361 21.9749 95.2708 18.519 92.2472C7.01081 82.0787 1.43904 69.1468 1.62506 52.4723ZM0.493366 189.998C0.493312 189.999 0.493597 189.997 0.494381 189.994C0.493812 189.997 0.493421 189.998 0.493366 189.998Z" stroke="white"/>
<path d="M546.522 163.641L546.52 163.634C546.165 162.485 545.838 159.976 545.556 155.958C545.276 151.962 545.042 146.525 544.854 139.559C544.479 125.627 544.292 105.601 544.292 78.8013V1.60352H565.356H586.419V76.7464C586.419 113.066 586.466 131.993 586.936 142.07C587.17 147.098 587.511 149.973 588.022 151.715C588.281 152.596 588.59 153.216 588.973 153.686C589.359 154.158 589.793 154.446 590.241 154.694L590.257 154.702L590.274 154.71C590.484 154.807 590.784 154.884 591.135 154.953C591.498 155.023 591.952 155.09 592.495 155.155C593.58 155.284 595.04 155.406 596.859 155.52C600.498 155.748 605.598 155.947 612.058 156.111C624.979 156.438 643.36 156.625 666.426 156.625C686.301 156.625 704.394 156.718 717.518 156.858C724.08 156.928 729.398 157.01 733.075 157.097C734.914 157.141 736.339 157.186 737.303 157.232C737.609 157.246 737.866 157.261 738.074 157.275C737.942 157.526 737.766 157.852 737.546 158.246C737.019 159.192 736.253 160.519 735.305 162.128C733.409 165.346 730.786 169.685 727.882 174.352L727.881 174.353L717.526 191.111H648.049C618.513 191.111 600.709 191.017 589.376 190.598C578.033 190.178 573.227 189.431 569.649 188.153L569.644 188.151C559.488 184.655 549.664 174.323 546.522 163.641Z" stroke="white"/>
<path d="M929.565 109.366L929.565 109.365C917.75 89.2865 906.873 71.0279 898.879 57.7885C894.882 51.169 891.605 45.8028 889.291 42.0906C888.135 40.2351 887.217 38.7899 886.57 37.8073C886.247 37.317 885.988 36.9364 885.799 36.6762C885.705 36.5475 885.622 36.4394 885.554 36.3599C885.521 36.3216 885.48 36.2778 885.437 36.2397C885.416 36.221 885.382 36.1932 885.338 36.1673C885.307 36.1487 885.207 36.0914 885.067 36.0914C884.908 36.0914 884.796 36.1639 884.767 36.1828C884.72 36.213 884.682 36.2463 884.655 36.2713C884.6 36.3226 884.543 36.3863 884.489 36.4517C884.377 36.5854 884.235 36.7744 884.067 37.0085C883.731 37.4791 883.268 38.1643 882.7 39.0309C881.563 40.7658 879.99 43.2464 878.124 46.2342C874.393 52.2107 869.487 60.2266 864.552 68.3873C859.618 76.5481 854.653 84.8556 850.805 91.4156C848.881 94.6953 847.235 97.5399 846.01 99.7115C844.803 101.853 843.986 103.376 843.73 104.005C843.659 104.166 843.667 104.344 843.742 104.497C843.808 104.629 843.91 104.711 843.976 104.757C844.111 104.85 844.286 104.916 844.455 104.968C844.807 105.077 845.325 105.179 845.972 105.278C847.274 105.476 849.188 105.67 851.559 105.846C856.306 106.197 862.925 106.477 870.245 106.571C870.246 106.571 870.247 106.571 870.247 106.571L896.782 107.125L907.512 124.999L907.515 125.004L917.762 142.552H871.192C866.587 142.552 862.409 142.535 858.611 142.519C851.09 142.489 845.057 142.464 840.148 142.59C832.766 142.78 827.844 143.31 824.159 144.709C820.436 146.122 818.012 148.406 815.586 151.991C813.961 154.391 812.314 157.41 810.265 161.166C809.283 162.966 808.209 164.935 807 167.087C806.583 167.824 806.18 168.539 805.789 169.231C802.834 174.469 800.588 178.45 798.578 181.487C796.305 184.923 794.366 187.1 792.102 188.503C789.842 189.902 787.207 190.563 783.479 190.866C780.274 191.127 776.308 191.122 771.127 191.115C770.264 191.114 769.367 191.113 768.434 191.113C762.343 191.113 756.819 191.02 752.82 190.856C750.819 190.775 749.208 190.676 748.101 190.564C747.625 190.515 747.254 190.466 746.989 190.416C747.004 190.388 747.02 190.358 747.037 190.327C747.224 189.978 747.505 189.473 747.874 188.82C748.61 187.516 749.692 185.633 751.073 183.249C753.836 178.483 757.79 171.721 762.56 163.599C772.099 147.356 784.897 125.68 797.929 103.664C823.99 59.6367 850.982 14.2691 854.737 8.28464C854.738 8.28342 854.738 8.28219 854.739 8.28096L859.087 1.60449H883.755C892.282 1.60449 898.736 1.79128 903.333 2.16322C905.632 2.34923 907.457 2.58076 908.84 2.85565C910.218 3.1296 911.102 3.43676 911.583 3.74787C911.694 3.84462 911.913 4.09247 912.252 4.53367C912.595 4.98164 913.034 5.59041 913.562 6.35213C914.619 7.87479 916.023 9.99266 917.726 12.6234C921.13 17.8839 925.719 25.1823 931.084 33.8429C941.815 51.1634 955.649 73.9241 969.326 96.7091C983.002 119.494 996.519 142.301 1006.62 159.715C1011.67 168.422 1015.86 175.778 1018.79 181.108C1020.25 183.773 1021.4 185.928 1022.18 187.489C1022.57 188.27 1022.87 188.897 1023.06 189.361C1023.16 189.586 1023.23 189.766 1023.27 189.904C1023.26 189.908 1023.24 189.913 1023.22 189.919C1022.96 190 1022.54 190.086 1021.98 190.173C1020.86 190.345 1019.23 190.507 1017.21 190.647C1013.16 190.926 1007.6 191.113 1001.51 191.113C990.799 191.113 985.23 191.064 981.909 190.489C980.266 190.205 979.216 189.798 978.379 189.229C977.535 188.655 976.872 187.893 976.031 186.823C975.582 186.24 973.937 183.646 971.328 179.405C968.727 175.179 965.189 169.349 960.971 162.335C952.534 148.305 941.378 129.536 929.565 109.366ZM746.619 190.322C746.619 190.322 746.62 190.323 746.622 190.323C746.62 190.323 746.619 190.322 746.619 190.322Z" stroke="white"/>
<path d="M1048.7 191.286V96.3573V1.604H1127.9C1153.77 1.604 1174.54 1.79076 1189.63 2.14081C1197.17 2.31585 1203.29 2.53165 1207.93 2.78512C1212.57 3.03923 1215.69 3.32983 1217.24 3.64796C1231.39 6.61694 1242.74 12.9191 1251.66 22.5491C1260.06 31.6523 1265.3 40.8683 1267.55 50.7794C1269.8 60.6902 1269.07 71.3385 1265.43 83.3219C1263.66 89.0085 1262.22 92.7422 1260.12 96.1664C1258.02 99.5916 1255.24 102.732 1250.75 107.207C1244.59 113.156 1236.4 119.083 1231.4 121.295C1228.86 122.235 1226.59 123.27 1224.95 124.169C1224.13 124.618 1223.46 125.041 1222.98 125.407C1222.74 125.589 1222.54 125.768 1222.39 125.941C1222.26 126.091 1222.09 126.328 1222.09 126.614C1222.09 126.748 1222.14 126.86 1222.16 126.9C1222.19 126.96 1222.22 127.022 1222.26 127.081C1222.33 127.201 1222.43 127.349 1222.56 127.519C1222.81 127.861 1223.18 128.325 1223.64 128.896C1224.58 130.038 1225.93 131.626 1227.6 133.558C1230.96 137.422 1235.63 142.672 1240.88 148.498C1251.38 160.149 1264.23 174.114 1273.61 183.924C1273.61 183.924 1273.61 183.925 1273.61 183.926L1280.32 191.111H1254.1H1226.94L1198.77 160.456L1198.77 160.455L1170.27 129.637L1170.12 129.476H1169.9H1130.71H1091.33H1090.84L1090.83 129.97L1090.46 160.224L1090.46 160.227L1089.91 190.191L1069.38 190.739L1069.38 190.739L1048.7 191.286ZM1207.95 40.7891L1207.94 40.7869C1204.59 39.6415 1199.93 38.9397 1190.67 38.5192C1181.39 38.0984 1167.46 37.9584 1145.52 37.9584H1091.33H1090.83V38.4584V64.7932V91.1281V91.6347L1091.34 91.6281L1148.16 90.8815L1148.16 90.8814C1178.51 90.4146 1194.22 90.1351 1203.5 88.7043C1208.15 87.9866 1211.23 86.9742 1213.75 85.4797C1216.26 83.9887 1218.18 82.0365 1220.53 79.5159C1227.18 72.4092 1229.14 64.52 1226.82 57.4699C1224.51 50.4384 1217.98 44.3717 1207.95 40.7891Z" stroke="white"/>
</g>
<defs>
<clipPath id="clip0_201_3393">
<rect width="1282" height="193" fill="white"/>
</clipPath>
</defs>
</svg>
