<svg width="1282" height="193" viewBox="0 0 1282 193" fill="none" xmlns="http://www.w3.org/2000/svg">
<path d="M351.589 1.10415C309.399 5.58669 273.583 23.7036 257.269 49.1047C239.268 77.1202 239.081 115.596 256.895 143.051C279.584 178.165 333.212 197.588 392.092 191.799C444.784 186.756 480.036 167.331 496.35 134.086C502.913 121.199 503.476 118.584 504.038 101.028C505.164 70.2101 498.038 52.093 476.849 32.8555C450.221 8.575 400.344 -3.9387 351.589 1.10415ZM405.218 41.0734C419.47 44.0619 437.658 52.6534 446.659 60.6847C459.222 71.7047 465.973 93.9297 461.285 108.686C455.284 127.549 439.909 140.25 412.344 149.401C381.217 159.675 351.402 157.62 320.649 143.051C301.898 133.9 292.335 124.747 287.835 111.113C277.709 80.8561 300.211 51.1591 340.525 41.447C354.965 37.8984 389.467 37.8984 405.218 41.0734Z" fill="#D2E4E4"/>
<path d="M40.3156 2.78518C24.9394 6.52067 10.1258 18.8477 4.12531 32.6687C2.43768 36.591 1.12509 44.9957 1.12509 52.4667C0.937572 69.2757 6.56301 82.3507 18.1888 92.6227C32.0649 104.763 39.9405 106.631 103.883 112.98C135.573 116.156 163.324 119.704 165.388 120.825C169.325 122.88 174.388 133.152 174.388 139.315C174.388 141.37 171.951 145.667 168.95 149.028L163.513 155.192L91.6945 156.125L19.8765 157.059L9.93826 172.934C4.50034 181.713 0 189.371 0 189.932C0 192.173 101.82 193.666 141.761 192.173C180.952 190.492 181.326 190.492 191.452 184.889C210.391 174.243 221.079 153.511 218.642 132.031C217.142 117.463 207.391 98.9725 197.453 91.5021C187.702 84.2179 180.763 82.537 134.823 77.6804C47.0661 68.155 54.0041 69.2757 49.3163 63.8602C43.6909 57.136 43.6909 48.9179 49.6912 43.128L54.1916 38.4588H120.759C157.325 38.4588 188.639 37.8985 190.14 37.3381C192.765 36.4042 213.766 4.83972 213.766 2.03814C213.766 0.54391 46.6911 1.29095 40.3156 2.78518Z" fill="#D2E4E4"/>
<path d="M543.792 78.8013C543.792 132.404 544.542 158.927 546.042 163.782C549.229 174.616 559.168 185.074 569.481 188.624C576.794 191.237 588.982 191.611 648.049 191.611H717.805L728.306 174.616C734.119 165.277 738.806 157.246 738.806 156.872C738.806 156.498 706.178 156.125 666.426 156.125C620.298 156.125 592.92 155.377 590.483 154.256C587.108 152.389 586.919 149.401 586.919 76.7464V1.10352H565.356H543.792V78.8013Z" fill="#D2E4E4"/>
<path d="M854.316 8.01517C846.814 19.9686 746.308 189.558 746.308 190.679C746.308 191.239 756.245 191.613 768.434 191.613C794.498 191.613 793.186 192.546 807.436 167.332C822.438 140.624 816.25 143.052 871.192 143.052H918.633L907.944 124.747L897.069 106.631L870.254 106.071C855.628 105.884 843.815 104.95 844.19 104.203C846.065 99.5331 884.131 36.5914 885.067 36.5914C885.63 36.5914 905.507 69.4636 929.134 109.619C952.761 149.962 973.762 184.701 975.637 187.13C979.012 191.425 980.137 191.613 1001.51 191.613C1013.7 191.613 1023.83 190.865 1023.83 190.118C1023.83 185.262 916.945 7.45485 911.882 3.34576C909.632 1.85167 900.819 1.10449 883.755 1.10449H858.816L854.316 8.01517Z" fill="#D2E4E4"/>
<path d="M1048.2 96.3573V191.799L1069.39 191.239L1090.4 190.678L1090.96 160.233L1091.33 129.976H1130.71H1169.9L1198.4 160.794L1226.72 191.611H1254.1H1281.47L1273.97 183.58C1255.22 163.969 1222.59 127.735 1222.59 126.614C1222.59 125.868 1226.53 123.627 1231.59 121.759C1236.66 119.518 1244.91 113.541 1251.1 107.564C1260.1 98.5985 1262.35 94.864 1265.91 83.47C1273.22 59.377 1268.91 40.513 1252.03 22.2092C1243.03 12.4971 1231.59 6.14686 1217.34 3.15841C1210.97 1.85105 1179.65 1.104 1127.9 1.104H1048.2V96.3573ZM1207.78 41.26C1227.66 48.3574 1233.28 65.1672 1220.16 79.1751C1210.78 89.2609 1208.9 89.4472 1148.15 90.3815L1091.33 91.1281V64.7932V38.4584H1145.52C1189.4 38.4584 1201.22 39.0187 1207.78 41.26Z" fill="#D2E4E4"/>
</svg>
