<svg width="74" height="85" viewBox="0 0 74 85" fill="none" xmlns="http://www.w3.org/2000/svg">
<path d="M61.48 2.2006C31.3592 8.41923 29.2391 8.95998 25.9405 10.4921C22.1474 12.2495 19.2146 14.9533 17.633 18.1527C16.7298 20.0453 16.5493 21.0367 16.5493 24.6868C16.5493 28.472 16.6848 29.2831 17.8135 31.5363C20.5218 37.0338 26.9362 41.1344 33.6621 41.6752C36.8252 41.9455 36.8692 41.9455 36.1004 41.0445C35.0167 39.8728 35.0641 38.701 36.2359 37.4844C36.9607 36.6732 38.9012 36.0426 44.2758 34.7806C48.1569 33.8796 51.4995 32.9782 51.7264 32.798C52.0854 32.4375 54.3883 23.2898 54.1648 23.1096C53.9379 22.9293 36.6423 26.8497 34.4308 27.6158C31.2711 28.6522 29.781 30.4097 29.5541 33.3387C29.3746 35.2764 29.554 36.1325 30.5023 37.845C31.1356 39.0617 31.4946 40.008 31.2711 40.008C30.4109 40.008 27.0716 37.3492 25.8965 35.7269C22.3743 30.8603 22.8248 25.2726 27.0716 21.4423C28.1079 20.4959 29.6895 19.4595 30.5937 19.0539C31.4946 18.6935 40.9772 16.6657 51.679 14.5477C62.3808 12.4298 71.2776 10.5371 71.4571 10.3569C71.64 10.1767 72.2258 8.10377 72.7237 5.76054C73.2655 3.4173 73.8074 1.1191 73.9429 0.668481C74.2578 -0.413018 73.672 -0.367955 61.48 2.2006Z" fill="#F50028"/>
<path d="M37.7734 43.1624C38.7657 45.1 38.6302 46.6323 37.367 47.4434C36.5068 48.0291 32.2193 49.0657 24.4977 50.6426C22.8722 51.0033 20.8402 53.2565 20.8402 54.7435C20.8402 55.4644 20.5218 57.2219 20.1628 58.664C19.7564 60.151 19.5295 61.3677 19.621 61.4576C19.709 61.5479 20.4778 61.4127 21.3346 61.2325C22.1948 61.0071 26.6178 59.9706 31.2236 58.9343C40.2118 56.9065 42.3793 55.9602 43.6865 53.4366C44.7262 51.4538 44.3198 48.1643 42.7857 45.8661C42.1524 44.8749 41.79 44.0638 42.0169 44.0638C42.9651 44.0638 46.8937 47.1278 48.0215 48.7953C50.7782 52.7607 50.7308 59.0695 47.8419 62.314C45.3121 65.1979 43.1006 65.8738 23.3226 69.7493C13.1626 71.7771 4.17685 73.5795 3.40909 73.8499C2.05443 74.2555 1.964 74.4809 0.835226 79.1222C0.202939 81.8259 -0.158067 84.1241 0.0674839 84.3495C0.519263 84.8001 0.970698 84.7551 22.1948 80.2939C44.9531 75.5171 49.3761 74.1203 53.1691 70.335C55.9259 67.5863 57.1891 64.3418 57.1891 59.8354C57.1891 56.4557 57.0096 55.6446 55.743 52.9861C52.9456 47.0828 46.8496 43.1624 38.8097 42.0809L37.0961 41.8555L37.7734 43.1624Z" fill="#F50028"/>
</svg>
