<svg width="30662" height="6638" viewBox="0 0 30662 6638" fill="none" xmlns="http://www.w3.org/2000/svg">
<path d="M29678.7 196.7C27335.8 681.38 27170.9 723.526 26914.3 842.939C26619.3 979.914 26391.2 1190.64 26268.2 1440.01C26197.9 1587.52 26183.9 1664.79 26183.9 1949.27C26183.9 2244.29 26194.4 2307.51 26282.2 2483.12C26492.9 2911.61 26991.8 3231.2 27514.9 3273.35C27761 3294.42 27764.4 3294.42 27704.6 3224.2C27620.3 3132.87 27624 3041.55 27715.1 2946.72C27771.5 2883.5 27922.4 2834.35 28340.5 2735.99C28642.4 2665.76 28902.4 2595.51 28920 2581.46C28947.9 2553.36 29127.1 1840.4 29109.7 1826.35C29092 1812.3 27746.7 2117.86 27574.7 2177.56C27329 2258.34 27213.1 2395.32 27195.4 2623.61C27181.4 2774.63 27195.4 2841.35 27269.2 2974.82C27318.4 3069.65 27346.3 3143.41 27329 3143.41C27262 3143.41 27002.3 2936.18 26910.9 2809.74C26637 2430.44 26672 1994.93 27002.3 1696.4C27082.9 1622.64 27205.9 1541.86 27276.3 1510.25C27346.3 1482.15 28083.9 1324.11 28916.3 1159.03C29748.7 993.961 30440.7 846.45 30454.7 832.403C30468.9 818.355 30514.5 656.793 30553.2 474.161C30595.4 291.529 30637.5 112.408 30648 77.2861C30672.5 -7.00606 30627 -3.49391 29678.7 196.7Z" fill="#D2E4E4"/>
<path d="M6585.48 1527.81C5795.22 1612.1 5124.37 1952.78 4818.81 2430.44C4481.63 2957.26 4478.13 3680.77 4811.8 4197.06C5236.77 4857.36 6241.27 5222.6 7344.13 5113.74C8331.08 5018.91 8991.37 4653.63 9296.93 4028.48C9419.87 3786.14 9430.41 3736.96 9440.95 3406.82C9462.02 2827.31 9328.54 2486.63 8931.68 2124.88C8432.92 1668.3 7498.68 1432.98 6585.48 1527.81ZM7589.98 2279.41C7856.93 2335.61 8197.61 2497.17 8366.2 2648.19C8601.51 2855.42 8727.95 3273.35 8640.15 3550.83C8527.75 3905.54 8239.75 4144.38 7723.45 4316.46C7140.43 4509.65 6581.98 4471.01 6005.96 4197.06C5654.74 4024.97 5475.62 3852.86 5391.32 3596.48C5201.66 3027.51 5623.13 2469.07 6378.25 2286.44C6648.7 2219.71 7294.95 2219.71 7589.98 2279.41Z" fill="#D2E4E4"/>
<path d="M755.136 1559.42C467.129 1629.67 189.662 1861.47 77.2696 2121.37C45.6592 2195.12 21.0735 2353.17 21.0735 2493.66C17.5613 2809.74 122.929 3055.61 340.688 3248.77C600.596 3477.07 748.111 3512.19 1945.79 3631.59C2539.36 3691.31 3059.17 3758.03 3097.81 3779.1C3171.57 3817.75 3266.4 4010.91 3266.4 4126.81C3266.4 4165.45 3220.75 4246.24 3164.53 4309.46L3062.7 4425.36L1717.49 4442.9L372.298 4460.47L186.15 4759C84.2942 4924.08 0 5068.09 0 5078.62C0 5120.77 1907.16 5148.85 2655.27 5120.77C3389.34 5089.16 3396.34 5089.16 3586 4983.8C3940.75 4783.6 4140.95 4393.75 4095.3 3989.83C4067.19 3715.88 3884.56 3368.18 3698.41 3227.7C3515.78 3090.73 3385.81 3059.12 2525.31 2967.79C881.577 2788.67 1011.53 2809.74 923.724 2707.91C818.357 2581.46 818.357 2426.93 930.747 2318.05L1015.04 2230.25H2261.89C2946.79 2230.25 3533.32 2219.71 3561.43 2209.17C3610.61 2191.61 4003.97 1598.06 4003.97 1545.37C4003.97 1517.28 874.552 1531.32 755.136 1559.42Z" fill="#D2E4E4"/>
<path d="M10185.6 2988.86C10185.6 3996.84 10199.6 4495.59 10227.7 4586.88C10287.4 4790.61 10473.5 4987.27 10666.7 5054.02C10803.7 5103.17 11032 5110.21 12138.4 5110.21H13444.9L13641.6 4790.61C13750.5 4614.99 13838.3 4463.98 13838.3 4456.94C13838.3 4449.91 13227.1 4442.9 12482.6 4442.9C11618.6 4442.9 11105.8 4428.84 11060.1 4407.76C10996.9 4372.65 10993.4 4316.46 10993.4 2950.22V1527.79H10589.5H10185.6V2988.86Z" fill="#D2E4E4"/>
<path d="M16001.8 1657.76C15861.3 1882.54 13978.8 5071.59 13978.8 5092.66C13978.8 5103.2 14164.9 5110.23 14393.2 5110.23C14881.4 5110.23 14856.8 5127.78 15123.8 4653.63C15404.8 4151.41 15288.9 4197.06 16318 4197.06H17206.5L17006.3 3852.86L16802.6 3512.19L16300.4 3501.65C16026.4 3498.15 15805.2 3480.58 15812.2 3466.54C15847.3 3378.72 16560.3 2195.13 16577.8 2195.13C16588.4 2195.13 16960.7 2813.27 17403.2 3568.37C17845.8 4327 18239.1 4980.26 18274.3 5025.94C18337.5 5106.7 18358.6 5110.23 18759 5110.23C18987.3 5110.23 19176.9 5096.17 19176.9 5082.13C19176.9 4990.8 17174.9 1647.23 17080.1 1569.96C17038 1541.86 16872.9 1527.81 16553.3 1527.81H16086.1L16001.8 1657.76Z" fill="#D2E4E4"/>
<path d="M19633.5 3319V5113.74L20030.4 5103.2L20423.8 5092.66L20434.3 4520.16L20441.3 3951.19H21178.9H21913L22446.8 4530.7L22977.2 5110.21H23490H24002.8L23862.3 4959.19C23511.1 4590.41 22899.9 3909.04 22899.9 3887.97C22899.9 3873.93 22973.7 3831.79 23068.5 3796.67C23163.3 3754.53 23317.9 3642.13 23433.8 3529.73C23602.4 3361.15 23644.5 3290.92 23711.3 3076.66C23848.2 2623.6 23767.4 2268.87 23451.3 1924.68C23282.8 1742.05 23068.5 1622.64 22801.6 1566.44C22682.2 1541.85 22095.6 1527.81 21126.2 1527.81H19633.5V3319ZM22622.4 2282.92C22994.8 2416.38 23100.1 2732.49 22854.3 2995.9C22678.7 3185.56 22643.5 3189.06 21505.5 3206.63L20441.3 3220.67V2725.45V2230.24H21456.4C22278.3 2230.24 22499.5 2240.78 22622.4 2282.92Z" fill="#D2E4E4"/>
<path d="M27834.7 3389.25C27911.9 3540.27 27901.4 3659.7 27803.1 3722.92C27736.2 3768.57 27402.7 3849.36 26802.1 3972.26C26675.7 4000.37 26517.6 4175.99 26517.6 4291.89C26517.6 4348.07 26492.9 4485.05 26464.9 4597.45C26433.3 4713.35 26415.7 4808.18 26422.8 4815.18C26429.6 4822.22 26489.4 4811.68 26556.1 4797.64C26623 4780.07 26967 4699.28 27325.3 4618.52C28024.4 4460.47 28193 4386.72 28294.6 4190.03C28375.5 4035.48 28343.9 3779.1 28224.6 3599.98C28175.3 3522.72 28147.1 3459.5 28164.8 3459.5C28238.5 3459.5 28544.1 3698.31 28631.8 3828.28C28846.3 4137.34 28842.6 4629.06 28617.9 4881.93C28421.1 5106.7 28249.1 5159.39 26710.7 5461.44C25920.5 5619.49 25221.5 5759.97 25161.8 5781.04C25056.4 5812.65 25049.4 5830.22 24961.6 6191.96C24912.4 6402.69 24884.3 6581.81 24901.9 6599.38C24937 6634.5 24972.1 6630.99 26623 6283.29C28393.2 5910.98 28737.2 5802.11 29032.2 5507.09C29246.6 5292.86 29344.9 5039.98 29344.9 4688.75C29344.9 4425.33 29330.9 4362.11 29232.4 4154.91C29014.8 3694.81 28540.7 3389.25 27915.3 3304.96L27782 3287.39L27834.7 3389.25Z" fill="#D2E4E4"/>
</svg>
